<?xml version="1.0" encoding="utf-8"?>
<!-- Generator: Adobe Illustrator 25.0.0, SVG Export Plug-In . SVG Version: 6.00 Build 0)  -->
<svg version="1.1" id="Layer_1" xmlns="http://www.w3.org/2000/svg" xmlns:xlink="http://www.w3.org/1999/xlink" x="0px" y="0px"
	 viewBox="0 0 770 77" style="enable-background:new 0 0 770 77;" xml:space="preserve">
<style type="text/css">
	.st0{fill:url(#SVGID_1_);}
	.st1{fill:url(#SVGID_2_);}
	.st2{fill:url(#SVGID_3_);}
	.st3{fill:url(#SVGID_4_);}
	.st4{fill:url(#SVGID_5_);}
	.st5{fill:url(#SVGID_6_);}
	.st6{fill:url(#SVGID_7_);}
	.st7{fill:url(#SVGID_8_);}
	.st8{fill:url(#SVGID_9_);}
	.st9{fill:url(#SVGID_10_);}
</style>
<linearGradient id="SVGID_1_" gradientUnits="userSpaceOnUse" x1="37.05" y1="1.6999" x2="37.05" y2="75.7999">
	<stop  offset="0" style="stop-color:#000000"/>
	<stop  offset="1" style="stop-color:#1A2980"/>
</linearGradient>
<path class="st0" d="M74.1,32.8c0,3.1-0.4,5.8-1.1,8.2c-0.8,2.4-1.8,4.5-3.1,6.4c-1.3,1.9-2.8,3.4-4.5,4.7c-1.7,1.3-3.5,2.4-5.3,3.2
	c-1.8,0.8-3.7,1.4-5.6,1.8c-1.9,0.4-3.6,0.6-5.3,0.6H18.8V44.3h30.4c1.7-0.1,3.3-0.5,4.7-1.1c1.4-0.6,2.6-1.3,3.6-2.3
	s1.8-2.1,2.3-3.5c0.6-1.4,0.8-2.9,0.8-4.6v-6.1c-0.2-1.7-0.5-3.2-1.1-4.7c-0.6-1.4-1.3-2.6-2.2-3.6c-0.9-1-2.1-1.8-3.4-2.4
	c-1.3-0.6-2.9-0.9-4.7-0.9H18.9c-1.8,0-3.2,0.5-4.1,1.4c-0.9,0.9-1.4,2.3-1.4,4v55.3H0V20.5c0-3.4,0.6-6.4,1.9-8.8
	c1.3-2.4,2.8-4.4,4.7-5.8c1.9-1.5,3.9-2.6,6.1-3.2c2.2-0.7,4.2-1,6.1-1h30.4c3,0,5.8,0.4,8.2,1.2c2.4,0.8,4.5,1.8,6.4,3.1
	c1.8,1.3,3.4,2.8,4.7,4.5c1.3,1.7,2.4,3.5,3.2,5.3c0.8,1.8,1.5,3.7,1.8,5.6c0.4,1.9,0.6,3.6,0.6,5.3V32.8L74.1,32.8z"/>
<linearGradient id="SVGID_2_" gradientUnits="userSpaceOnUse" x1="118.95" y1="1.8999" x2="118.95" y2="75.8999">
	<stop  offset="0" style="stop-color:#000000"/>
	<stop  offset="1" style="stop-color:#1A2980"/>
</linearGradient>
<path class="st1" d="M152.6,75.9h-48.5c-1.9,0-3.9-0.3-6.1-1c-2.2-0.7-4.2-1.7-6.1-3.2s-3.4-3.4-4.7-5.8c-1.3-2.4-1.9-5.3-1.9-8.8
	V8.6c0-0.9,0.2-1.8,0.5-2.6c0.3-0.8,0.8-1.6,1.4-2.2c0.6-0.6,1.3-1.1,2.1-1.4C90.1,2.1,91,1.9,92,1.9h60.5v13.4H98.7v41.8
	c0,1.8,0.5,3.1,1.4,4c0.9,0.9,2.3,1.4,4.1,1.4h48.4V75.9z M146.5,45.6h-42.4V32.1h42.4V45.6z"/>
<linearGradient id="SVGID_3_" gradientUnits="userSpaceOnUse" x1="204.2" y1="1.6999" x2="204.2" y2="75.7999">
	<stop  offset="0" style="stop-color:#000000"/>
	<stop  offset="1" style="stop-color:#1A2980"/>
</linearGradient>
<path class="st2" d="M239.6,26.7c0,3.1-0.4,5.8-1.1,8.2c-0.8,2.4-1.8,4.5-3.1,6.4c-1.3,1.8-2.8,3.4-4.5,4.7
	c-1.7,1.3-3.5,2.4-5.3,3.2c-1.8,0.8-3.7,1.5-5.6,1.8c-1.9,0.4-3.6,0.6-5.3,0.6l28.1,24.2H222l-28-24.2h-9.7V38.2h30.4
	c1.7-0.1,3.2-0.5,4.6-1.1c1.4-0.6,2.6-1.3,3.6-2.3s1.8-2.1,2.4-3.5c0.6-1.4,0.8-2.9,0.8-4.7v-8.5c0-0.8-0.1-1.3-0.3-1.7
	c-0.2-0.4-0.4-0.7-0.7-0.9c-0.3-0.2-0.6-0.3-0.9-0.3s-0.6-0.1-0.9-0.1H179v60.7h-13.4V8.4c0-0.9,0.2-1.8,0.5-2.6
	c0.3-0.8,0.8-1.6,1.4-2.2s1.3-1.1,2.1-1.4c0.8-0.3,1.7-0.5,2.7-0.5h51c3,0,5.5,0.5,7.6,1.6c2.1,1.1,3.7,2.4,5,4.1
	c1.3,1.6,2.2,3.4,2.8,5.3c0.6,1.9,0.9,3.7,0.9,5.3V26.7z"/>
<linearGradient id="SVGID_4_" gradientUnits="userSpaceOnUse" x1="285.8" y1="1.6999" x2="285.8" y2="75.8999">
	<stop  offset="0" style="stop-color:#000000"/>
	<stop  offset="1" style="stop-color:#1A2980"/>
</linearGradient>
<path class="st3" d="M319.5,75.9H271c-1.2,0-2.6-0.1-4-0.4s-2.8-0.7-4.2-1.4c-1.4-0.6-2.7-1.4-4-2.4c-1.3-1-2.4-2.2-3.4-3.6
	s-1.8-3-2.4-4.9c-0.6-1.8-0.9-3.9-0.9-6.2V20.6c0-1.2,0.1-2.6,0.4-4s0.7-2.8,1.4-4.2c0.6-1.4,1.4-2.7,2.4-4c1-1.3,2.2-2.4,3.6-3.4
	s3-1.8,4.8-2.4c1.8-0.6,3.9-0.9,6.2-0.9h48.5v13.4H271c-1.8,0-3.1,0.5-4,1.4s-1.4,2.3-1.4,4.1v36.3c0,1.7,0.5,3.1,1.4,4
	c0.9,0.9,2.3,1.4,4,1.4h48.5V75.9z"/>
<linearGradient id="SVGID_5_" gradientUnits="userSpaceOnUse" x1="365.65" y1="1.8999" x2="365.65" y2="75.8999">
	<stop  offset="0" style="stop-color:#000000"/>
	<stop  offset="1" style="stop-color:#1A2980"/>
</linearGradient>
<path class="st4" d="M399.3,1.9h-48.5c-1.9,0-3.9,0.3-6.1,1c-2.2,0.7-4.2,1.7-6.1,3.2s-3.4,3.4-4.7,5.8c-1.3,2.4-1.9,5.3-1.9,8.8
	v48.5c0,0.9,0.2,1.8,0.5,2.6c0.3,0.8,0.8,1.6,1.4,2.2s1.3,1.1,2.1,1.4c0.8,0.3,1.7,0.5,2.7,0.5h60.5V62.5h-53.9V20.7
	c0-1.8,0.5-3.1,1.4-4c0.9-0.9,2.3-1.4,4.1-1.4h48.4L399.3,1.9L399.3,1.9z M393.2,32.2h-42.4v13.5h42.4V32.2z"/>
<linearGradient id="SVGID_6_" gradientUnits="userSpaceOnUse" x1="449.05" y1="1.6999" x2="449.05" y2="75.7999">
	<stop  offset="0" style="stop-color:#000000"/>
	<stop  offset="1" style="stop-color:#1A2980"/>
</linearGradient>
<path class="st5" d="M486.1,32.8c0,3.1-0.4,5.8-1.1,8.2c-0.8,2.4-1.8,4.5-3.1,6.4c-1.3,1.8-2.8,3.4-4.5,4.7
	c-1.7,1.3-3.5,2.4-5.3,3.2c-1.8,0.8-3.7,1.4-5.6,1.8c-1.9,0.4-3.6,0.6-5.3,0.6h-30.4V44.3h30.4c1.7-0.1,3.3-0.5,4.7-1.1
	c1.4-0.6,2.6-1.3,3.6-2.3s1.8-2.1,2.3-3.5c0.6-1.4,0.8-2.9,0.8-4.6v-6.1c-0.2-1.7-0.5-3.2-1.1-4.7c-0.6-1.4-1.3-2.6-2.2-3.6
	c-0.9-1-2.1-1.8-3.4-2.4c-1.3-0.6-2.9-0.9-4.7-0.9h-30.3c-1.8,0-3.2,0.5-4.1,1.4c-0.9,0.9-1.4,2.3-1.4,4v55.3H412V20.5
	c0-3.4,0.6-6.4,1.9-8.8c1.3-2.4,2.8-4.4,4.7-5.8c1.9-1.5,3.9-2.6,6.1-3.2c2.2-0.7,4.2-1,6.1-1h30.4c3,0,5.8,0.4,8.2,1.2
	s4.5,1.8,6.4,3.1c1.8,1.3,3.4,2.8,4.7,4.5c1.3,1.7,2.4,3.5,3.2,5.3c0.8,1.8,1.5,3.7,1.8,5.6c0.4,1.9,0.6,3.6,0.6,5.3V32.8
	L486.1,32.8z"/>
<linearGradient id="SVGID_7_" gradientUnits="userSpaceOnUse" x1="528.25" y1="1.7999" x2="528.25" y2="75.8999">
	<stop  offset="0" style="stop-color:#000000"/>
	<stop  offset="1" style="stop-color:#1A2980"/>
</linearGradient>
<path class="st6" d="M564.6,15.2H535v60.7h-13.4V15.2h-29.7V1.8h72.7V15.2z"/>
<linearGradient id="SVGID_8_" gradientUnits="userSpaceOnUse" x1="581.3" y1="1.7999" x2="581.3" y2="75.8999">
	<stop  offset="0" style="stop-color:#000000"/>
	<stop  offset="1" style="stop-color:#1A2980"/>
</linearGradient>
<path class="st7" d="M588,75.9h-13.4V1.8H588V75.9z"/>
<linearGradient id="SVGID_9_" gradientUnits="userSpaceOnUse" x1="641.5" y1="0.8999" x2="641.5" y2="76.9999">
	<stop  offset="0" style="stop-color:#000000"/>
	<stop  offset="1" style="stop-color:#1A2980"/>
</linearGradient>
<path class="st8" d="M681.6,46c0,4.5-0.8,8.7-2.3,12.5c-1.6,3.8-3.7,7.1-6.5,9.8c-2.8,2.8-6,4.9-9.8,6.4s-7.9,2.3-12.3,2.3h-18.2
	c-4.4,0-8.6-0.8-12.4-2.3c-3.8-1.5-7.1-3.7-9.8-6.4c-2.8-2.8-4.9-6-6.5-9.8c-1.6-3.8-2.4-7.9-2.4-12.5V31.8c0-4.5,0.8-8.6,2.4-12.4
	c1.6-3.8,3.7-7.1,6.5-9.8c2.8-2.7,6-4.9,9.8-6.4c3.8-1.6,7.9-2.3,12.4-2.3h18.2c4.4,0,8.6,0.8,12.3,2.3c3.8,1.6,7,3.7,9.8,6.4
	c2.8,2.7,4.9,6,6.5,9.8c1.6,3.8,2.3,8,2.3,12.4V46z M668.1,31.8c0-2.7-0.4-5.1-1.3-7.2c-0.8-2.2-2-4-3.6-5.5
	c-1.5-1.5-3.4-2.7-5.5-3.6c-2.2-0.8-4.5-1.3-7.1-1.3h-18.2c-2.6,0-5,0.4-7.2,1.3c-2.2,0.8-4,2-5.6,3.6c-1.6,1.5-2.7,3.4-3.6,5.5
	c-0.8,2.2-1.3,4.6-1.3,7.2V46c0,2.7,0.4,5.1,1.3,7.2c0.8,2.2,2,4,3.6,5.5c1.6,1.5,3.4,2.7,5.6,3.6c2.2,0.8,4.5,1.3,7.2,1.3h18.1
	c2.6,0,5-0.4,7.2-1.3c2.2-0.8,4-2,5.6-3.6c1.6-1.6,2.7-3.4,3.6-5.5c0.8-2.2,1.3-4.6,1.3-7.2V31.8H668.1z"/>
<linearGradient id="SVGID_10_" gradientUnits="userSpaceOnUse" x1="732.15" y1="0.7034" x2="732.15" y2="76.8999">
	<stop  offset="0" style="stop-color:#000000"/>
	<stop  offset="1" style="stop-color:#1A2980"/>
</linearGradient>
<path class="st9" d="M768.9,70.2c0,1-0.2,1.9-0.5,2.7c-0.4,0.8-0.8,1.5-1.4,2.1s-1.3,1.1-2.1,1.4c-0.8,0.3-1.7,0.5-2.6,0.5
	c-0.8,0-1.7-0.2-2.5-0.5c-0.8-0.3-1.6-0.8-2.2-1.5l-49.1-51.3v52.2h-13.4V7.4c0-1.4,0.4-2.6,1.2-3.7s1.8-2,3-2.5
	c1.3-0.5,2.6-0.6,3.9-0.4c1.3,0.3,2.5,0.9,3.5,1.9l49.1,51.2V1.7h13.4v68.5H768.9z"/>
</svg>
