<svg width="500" height="500" viewBox="0 0 500 500" fill="none" xmlns="http://www.w3.org/2000/svg">
<rect width="500" height="500" rx="20" fill="#2081A9"/>
<path d="M129.457 421V382H154.657V390.64H139.777V396.76H152.497V405.4H139.777V412.36H155.257V421H129.457ZM161.957 421V391H170.357L171.077 394.6H171.317C172.517 393.44 173.877 392.44 175.397 391.6C176.957 390.72 178.757 390.28 180.797 390.28C184.077 390.28 186.457 391.4 187.937 393.64C189.417 395.84 190.157 398.8 190.157 402.52V421H179.837V403.84C179.837 401.92 179.597 400.64 179.117 400C178.637 399.36 177.877 399.04 176.837 399.04C175.877 399.04 175.077 399.24 174.437 399.64C173.797 400.04 173.077 400.6 172.277 401.32V421H161.957ZM207.798 433.36C206.078 433.36 204.458 433.22 202.938 432.94C201.418 432.7 200.078 432.28 198.918 431.68C197.798 431.08 196.898 430.3 196.218 429.34C195.538 428.42 195.198 427.28 195.198 425.92C195.198 423.56 196.598 421.64 199.398 420.16V419.92C198.598 419.36 197.938 418.68 197.418 417.88C196.898 417.08 196.638 416.04 196.638 414.76C196.638 413.72 196.938 412.7 197.538 411.7C198.138 410.7 198.958 409.84 199.998 409.12V408.88C198.918 408.16 197.958 407.14 197.118 405.82C196.318 404.5 195.918 402.96 195.918 401.2C195.918 399.36 196.278 397.76 196.998 396.4C197.718 395 198.678 393.86 199.878 392.98C201.078 392.06 202.438 391.38 203.958 390.94C205.518 390.5 207.118 390.28 208.758 390.28C210.518 390.28 212.118 390.52 213.558 391H224.718V398.44H220.398C220.518 398.8 220.618 399.26 220.698 399.82C220.818 400.38 220.878 400.96 220.878 401.56C220.878 403.32 220.558 404.84 219.918 406.12C219.278 407.36 218.418 408.38 217.338 409.18C216.258 409.98 214.978 410.58 213.498 410.98C212.018 411.34 210.438 411.52 208.758 411.52C207.758 411.52 206.638 411.38 205.398 411.1C205.078 411.38 204.878 411.64 204.798 411.88C204.718 412.08 204.678 412.4 204.678 412.84C204.678 413.52 204.998 414 205.638 414.28C206.278 414.52 207.358 414.64 208.878 414.64H213.378C217.138 414.64 220.038 415.26 222.078 416.5C224.158 417.7 225.198 419.68 225.198 422.44C225.198 424.08 224.778 425.56 223.938 426.88C223.138 428.24 221.978 429.4 220.458 430.36C218.978 431.32 217.158 432.06 214.998 432.58C212.878 433.1 210.478 433.36 207.798 433.36ZM208.758 405.4C209.718 405.4 210.498 405.06 211.098 404.38C211.698 403.7 211.998 402.64 211.998 401.2C211.998 399.8 211.698 398.78 211.098 398.14C210.498 397.46 209.718 397.12 208.758 397.12C207.798 397.12 207.018 397.46 206.418 398.14C205.818 398.78 205.518 399.8 205.518 401.2C205.518 402.64 205.818 403.7 206.418 404.38C207.018 405.06 207.798 405.4 208.758 405.4ZM209.478 427C211.158 427 212.558 426.74 213.678 426.22C214.798 425.74 215.358 425.08 215.358 424.24C215.358 423.44 214.998 422.94 214.278 422.74C213.598 422.54 212.618 422.44 211.338 422.44H208.998C207.798 422.44 206.878 422.4 206.238 422.32C205.638 422.28 205.118 422.2 204.678 422.08C204.318 422.44 204.038 422.78 203.838 423.1C203.678 423.42 203.598 423.8 203.598 424.24C203.598 425.2 204.138 425.9 205.218 426.34C206.298 426.78 207.718 427 209.478 427ZM236.26 421.72C234.86 421.72 233.6 421.48 232.48 421C231.36 420.48 230.4 419.8 229.6 418.96C228.84 418.12 228.26 417.14 227.86 416.02C227.46 414.9 227.26 413.72 227.26 412.48C227.26 409.36 228.54 406.92 231.1 405.16C233.66 403.36 237.82 402.16 243.58 401.56C243.34 399.48 241.94 398.44 239.38 398.44C238.3 398.44 237.16 398.66 235.96 399.1C234.76 399.5 233.38 400.12 231.82 400.96L228.22 394.24C230.34 392.96 232.48 391.98 234.64 391.3C236.8 390.62 239.06 390.28 241.42 390.28C245.3 390.28 248.34 391.4 250.54 393.64C252.78 395.84 253.9 399.4 253.9 404.32V421H245.5L244.78 418.12H244.54C243.34 419.2 242.06 420.08 240.7 420.76C239.38 421.4 237.9 421.72 236.26 421.72ZM239.86 413.8C240.7 413.8 241.38 413.62 241.9 413.26C242.46 412.86 243.02 412.36 243.58 411.76V407.68C241.1 408.04 239.4 408.58 238.48 409.3C237.56 410.02 237.1 410.8 237.1 411.64C237.1 413.08 238.02 413.8 239.86 413.8ZM271.548 433.36C269.828 433.36 268.208 433.22 266.688 432.94C265.168 432.7 263.828 432.28 262.668 431.68C261.548 431.08 260.648 430.3 259.968 429.34C259.288 428.42 258.948 427.28 258.948 425.92C258.948 423.56 260.348 421.64 263.148 420.16V419.92C262.348 419.36 261.688 418.68 261.168 417.88C260.648 417.08 260.388 416.04 260.388 414.76C260.388 413.72 260.688 412.7 261.288 411.7C261.888 410.7 262.708 409.84 263.748 409.12V408.88C262.668 408.16 261.708 407.14 260.868 405.82C260.068 404.5 259.668 402.96 259.668 401.2C259.668 399.36 260.028 397.76 260.748 396.4C261.468 395 262.428 393.86 263.628 392.98C264.828 392.06 266.188 391.38 267.708 390.94C269.268 390.5 270.868 390.28 272.508 390.28C274.268 390.28 275.868 390.52 277.308 391H288.468V398.44H284.148C284.268 398.8 284.368 399.26 284.448 399.82C284.568 400.38 284.628 400.96 284.628 401.56C284.628 403.32 284.308 404.84 283.668 406.12C283.028 407.36 282.168 408.38 281.088 409.18C280.008 409.98 278.728 410.58 277.248 410.98C275.768 411.34 274.188 411.52 272.508 411.52C271.508 411.52 270.388 411.38 269.148 411.1C268.828 411.38 268.628 411.64 268.548 411.88C268.468 412.08 268.428 412.4 268.428 412.84C268.428 413.52 268.748 414 269.388 414.28C270.028 414.52 271.108 414.64 272.628 414.64H277.128C280.888 414.64 283.788 415.26 285.828 416.5C287.908 417.7 288.948 419.68 288.948 422.44C288.948 424.08 288.528 425.56 287.688 426.88C286.888 428.24 285.728 429.4 284.208 430.36C282.728 431.32 280.908 432.06 278.748 432.58C276.628 433.1 274.228 433.36 271.548 433.36ZM272.508 405.4C273.468 405.4 274.248 405.06 274.848 404.38C275.448 403.7 275.748 402.64 275.748 401.2C275.748 399.8 275.448 398.78 274.848 398.14C274.248 397.46 273.468 397.12 272.508 397.12C271.548 397.12 270.768 397.46 270.168 398.14C269.568 398.78 269.268 399.8 269.268 401.2C269.268 402.64 269.568 403.7 270.168 404.38C270.768 405.06 271.548 405.4 272.508 405.4ZM273.228 427C274.908 427 276.308 426.74 277.428 426.22C278.548 425.74 279.108 425.08 279.108 424.24C279.108 423.44 278.748 422.94 278.028 422.74C277.348 422.54 276.368 422.44 275.088 422.44H272.748C271.548 422.44 270.628 422.4 269.988 422.32C269.388 422.28 268.868 422.2 268.428 422.08C268.068 422.44 267.788 422.78 267.588 423.1C267.428 423.42 267.348 423.8 267.348 424.24C267.348 425.2 267.888 425.9 268.968 426.34C270.048 426.78 271.468 427 273.228 427ZM293.382 421V391H303.702V421H293.382ZM298.542 387.28C296.862 387.28 295.482 386.8 294.402 385.84C293.322 384.88 292.782 383.64 292.782 382.12C292.782 380.6 293.322 379.36 294.402 378.4C295.482 377.44 296.862 376.96 298.542 376.96C300.222 376.96 301.602 377.44 302.682 378.4C303.762 379.36 304.302 380.6 304.302 382.12C304.302 383.64 303.762 384.88 302.682 385.84C301.602 386.8 300.222 387.28 298.542 387.28ZM310.668 421V391H319.068L319.788 394.6H320.028C321.228 393.44 322.588 392.44 324.108 391.6C325.668 390.72 327.468 390.28 329.508 390.28C332.788 390.28 335.168 391.4 336.648 393.64C338.128 395.84 338.867 398.8 338.867 402.52V421H328.548V403.84C328.548 401.92 328.308 400.64 327.828 400C327.348 399.36 326.588 399.04 325.548 399.04C324.588 399.04 323.788 399.24 323.148 399.64C322.508 400.04 321.788 400.6 320.988 401.32V421H310.668ZM356.509 433.36C354.789 433.36 353.169 433.22 351.649 432.94C350.129 432.7 348.789 432.28 347.629 431.68C346.509 431.08 345.609 430.3 344.929 429.34C344.249 428.42 343.909 427.28 343.909 425.92C343.909 423.56 345.309 421.64 348.109 420.16V419.92C347.309 419.36 346.649 418.68 346.129 417.88C345.609 417.08 345.349 416.04 345.349 414.76C345.349 413.72 345.649 412.7 346.249 411.7C346.849 410.7 347.669 409.84 348.709 409.12V408.88C347.629 408.16 346.669 407.14 345.829 405.82C345.029 404.5 344.629 402.96 344.629 401.2C344.629 399.36 344.989 397.76 345.709 396.4C346.429 395 347.389 393.86 348.589 392.98C349.789 392.06 351.149 391.38 352.669 390.94C354.229 390.5 355.829 390.28 357.469 390.28C359.229 390.28 360.829 390.52 362.269 391H373.429V398.44H369.109C369.229 398.8 369.329 399.26 369.409 399.82C369.529 400.38 369.589 400.96 369.589 401.56C369.589 403.32 369.269 404.84 368.629 406.12C367.989 407.36 367.129 408.38 366.049 409.18C364.969 409.98 363.689 410.58 362.209 410.98C360.729 411.34 359.149 411.52 357.469 411.52C356.469 411.52 355.349 411.38 354.109 411.1C353.789 411.38 353.589 411.64 353.509 411.88C353.429 412.08 353.389 412.4 353.389 412.84C353.389 413.52 353.709 414 354.349 414.28C354.989 414.52 356.069 414.64 357.589 414.64H362.089C365.849 414.64 368.749 415.26 370.789 416.5C372.869 417.7 373.909 419.68 373.909 422.44C373.909 424.08 373.489 425.56 372.649 426.88C371.849 428.24 370.689 429.4 369.169 430.36C367.689 431.32 365.869 432.06 363.709 432.58C361.589 433.1 359.189 433.36 356.509 433.36ZM357.469 405.4C358.429 405.4 359.209 405.06 359.809 404.38C360.409 403.7 360.709 402.64 360.709 401.2C360.709 399.8 360.409 398.78 359.809 398.14C359.209 397.46 358.429 397.12 357.469 397.12C356.509 397.12 355.729 397.46 355.129 398.14C354.529 398.78 354.229 399.8 354.229 401.2C354.229 402.64 354.529 403.7 355.129 404.38C355.729 405.06 356.509 405.4 357.469 405.4ZM358.189 427C359.869 427 361.269 426.74 362.389 426.22C363.509 425.74 364.069 425.08 364.069 424.24C364.069 423.44 363.709 422.94 362.989 422.74C362.309 422.54 361.329 422.44 360.049 422.44H357.709C356.509 422.44 355.589 422.4 354.949 422.32C354.349 422.28 353.829 422.2 353.389 422.08C353.029 422.44 352.749 422.78 352.549 423.1C352.389 423.42 352.309 423.8 352.309 424.24C352.309 425.2 352.849 425.9 353.929 426.34C355.009 426.78 356.429 427 358.189 427Z" fill="white"/>
<path d="M228.733 126.934V136.067C228.733 146.141 236.926 154.334 247 154.334C257.074 154.334 265.267 146.141 265.267 136.067V126.934C265.267 116.86 257.074 108.667 247 108.667C236.926 108.667 228.733 116.86 228.733 126.934Z" fill="white"/>
<path d="M247 163.467C244.895 163.467 242.853 163.207 240.881 162.755C239.492 164.96 237.748 166.842 235.729 168.363C242.091 173.692 251.914 173.692 258.27 168.363C256.252 166.842 254.503 164.96 253.119 162.755C251.147 163.207 249.105 163.467 247 163.467Z" fill="white"/>
<path d="M274.4 209.134V218.267H347.466V198.256C347.466 191.666 342.105 186.3 335.511 186.3H334.844C333.671 186.3 332.524 186.177 331.396 185.994L329.752 187.638C324.729 192.666 318.043 195.434 310.933 195.434C304.074 195.434 297.626 192.835 292.667 188.141V204.567C292.667 207.092 290.621 209.134 288.1 209.134H274.4Z" fill="white"/>
<path d="M310.933 177.167C308.828 177.167 306.787 176.907 304.814 176.455C303.426 178.66 301.681 180.542 299.663 182.063C306.024 187.392 315.847 187.392 322.204 182.063C320.185 180.542 318.436 178.66 317.052 176.455C315.08 176.907 313.038 177.167 310.933 177.167Z" fill="white"/>
<path d="M210.467 184.556V200H283.533V184.556C283.533 177.966 278.172 172.6 271.578 172.6H270.911C269.737 172.6 268.591 172.477 267.463 172.294L265.819 173.938C260.796 178.966 254.11 181.734 247 181.734C239.89 181.734 233.204 178.966 228.181 173.938L226.537 172.294C225.409 172.477 224.262 172.6 223.089 172.6H222.422C215.828 172.6 210.467 177.966 210.467 184.556Z" fill="white"/>
<path d="M164.8 149.767C164.8 159.841 172.993 168.034 183.067 168.034C193.141 168.034 201.333 159.841 201.333 149.767V140.634C201.333 130.56 193.141 122.367 183.067 122.367C172.993 122.367 164.8 130.56 164.8 140.634V149.767Z" fill="white"/>
<path d="M219.6 209.134H205.9C203.379 209.134 201.333 207.092 201.333 204.567V188.141C196.374 192.835 189.926 195.434 183.067 195.434C175.956 195.434 169.271 192.666 164.248 187.638L162.604 185.994C161.476 186.177 160.329 186.3 159.156 186.3H158.489C151.895 186.3 146.533 191.666 146.533 198.256V218.267H219.6V209.134Z" fill="white"/>
<path d="M183.067 177.167C180.962 177.167 178.92 176.907 176.948 176.455C175.559 178.66 173.815 180.542 171.796 182.063C178.158 187.392 187.981 187.392 194.337 182.063C192.319 180.542 190.57 178.66 189.186 176.455C187.213 176.907 185.172 177.167 183.067 177.167Z" fill="white"/>
<path d="M310.933 168.034C321.007 168.034 329.2 159.841 329.2 149.767V140.634C329.2 130.56 321.007 122.367 310.933 122.367C300.859 122.367 292.667 130.56 292.667 140.634V149.767C292.667 159.841 300.859 168.034 310.933 168.034Z" fill="white"/>
<path d="M151.1 245.667H169.367V327.867H151.1V245.667Z" fill="white"/>
<path d="M362.171 265.071L268.961 290.493C269.189 295.247 267.55 300.074 263.928 303.695C260.522 307.102 256.042 308.805 251.566 308.805C247.091 308.805 242.611 307.102 239.205 303.695L216.371 280.862L222.829 274.405L245.662 297.238C248.918 300.494 254.215 300.494 257.471 297.238C260.727 293.982 260.727 288.685 257.471 285.429L226.843 254.8H178.5V318.733H210.467C210.955 318.733 211.444 318.816 211.91 318.971L237.844 327.616L379.433 278.94V277.633C379.433 275.026 378.698 272.482 377.3 270.29C374.318 265.596 368.098 263.449 362.171 265.071Z" fill="white"/>
<path d="M114.567 337H141.967V332.433V245.667H114.567V337Z" fill="white"/>
<path d="M270.715 64.9781C267.705 64.4712 264.6 64.051 261.476 63.7314L260.549 72.819C263.458 73.1113 266.34 73.4994 269.189 73.9881L270.715 64.9781Z" fill="white"/>
<path d="M388.539 201.804L379.405 201.982C379.424 202.845 379.433 203.708 379.433 204.567C379.433 206.622 379.387 208.672 379.291 210.705L388.415 211.125C388.516 208.951 388.566 206.764 388.566 204.567C388.566 203.645 388.557 202.722 388.539 201.804Z" fill="white"/>
<path d="M377.36 228.035L386.351 229.652C386.895 226.615 387.347 223.509 387.689 220.422L378.611 219.409C378.291 222.313 377.871 225.19 377.36 228.035Z" fill="white"/>
<path d="M306.271 75.9654C303.439 74.6594 300.544 73.4401 297.667 72.3395L294.402 80.8655C297.128 81.9112 299.809 83.0437 302.444 84.2585L306.271 75.9654Z" fill="white"/>
<path d="M288.84 69.2844C285.88 68.3756 282.885 67.5536 279.848 66.8321L277.729 75.7142C280.574 76.3901 283.378 77.1573 286.145 78.0158L288.84 69.2844Z" fill="white"/>
<path d="M322.651 84.8886C320.048 83.2401 317.34 81.6463 314.605 80.1576L310.243 88.1858C312.801 89.5786 315.308 91.0491 317.76 92.6063L322.651 84.8886Z" fill="white"/>
<path d="M373.163 244.959L381.863 247.74C382.812 244.772 383.666 241.749 384.406 238.762L375.542 236.57C374.839 239.406 374.044 242.201 373.163 244.959Z" fill="white"/>
<path d="M355.412 128.496L362.883 123.244C361.098 120.7 359.225 118.216 357.28 115.8L350.161 121.527C351.987 123.792 353.741 126.112 355.412 128.496Z" fill="white"/>
<path d="M371.496 159.298L380.081 156.174C379.017 153.252 377.848 150.347 376.611 147.534L368.254 151.219C369.418 153.868 370.5 156.562 371.496 159.298Z" fill="white"/>
<path d="M134.354 134.898L126.595 130.08C124.965 132.711 123.399 135.432 121.942 138.168L130.002 142.46C131.372 139.889 132.82 137.369 134.354 134.898Z" fill="white"/>
<path d="M364.472 143.374L372.569 139.145C371.14 136.41 369.601 133.683 367.989 131.039L360.189 135.784C361.701 138.259 363.13 140.794 364.472 143.374Z" fill="white"/>
<path d="M351.197 108.736C349.119 106.475 346.918 104.238 344.662 102.087L338.36 108.695C340.461 110.699 342.502 112.773 344.471 114.914L351.197 108.736Z" fill="white"/>
<path d="M376.355 176.035L385.274 174.071C384.607 171.039 383.835 168.002 382.977 165.038L374.204 167.582C375.008 170.367 375.725 173.185 376.355 176.035Z" fill="white"/>
<path d="M337.712 95.876C335.328 93.8895 332.853 91.9533 330.364 90.1357L324.98 97.5109C327.332 99.228 329.624 101.023 331.853 102.886L337.712 95.876Z" fill="white"/>
<path d="M378.958 193.269L388.059 192.493C387.794 189.378 387.429 186.296 386.968 183.241L377.935 184.606C378.373 187.465 378.711 190.356 378.958 193.269Z" fill="white"/>
<path d="M184.661 87.6926L180.359 79.637C177.619 81.0984 174.906 82.6647 172.29 84.2996L177.126 92.0492C179.578 90.5148 182.094 89.0626 184.661 87.6926Z" fill="white"/>
<path d="M169.874 96.8898L164.54 89.4781C162.019 91.2911 159.553 93.1863 157.156 95.1545L162.96 102.21C165.202 100.365 167.513 98.5886 169.874 96.8898Z" fill="white"/>
<path d="M200.521 80.5229L197.315 71.9696C194.406 73.061 191.511 74.2575 188.711 75.5225L192.474 83.8429C195.114 82.651 197.799 81.5459 200.521 80.5229Z" fill="white"/>
<path d="M131.765 122.322L139.19 127.637C140.889 125.267 142.656 122.956 144.501 120.7L137.428 114.924C135.464 117.326 133.573 119.796 131.765 122.322Z" fill="white"/>
<path d="M156.402 107.982L150.164 101.31C147.931 103.397 145.716 105.617 143.574 107.909L150.251 114.143C152.246 111.996 154.32 109.923 156.402 107.982Z" fill="white"/>
<path d="M126.157 150.306L117.832 146.561C116.567 149.365 115.375 152.274 114.288 155.197L122.846 158.38C123.86 155.644 124.965 152.95 126.157 150.306Z" fill="white"/>
<path d="M120.074 166.641L111.32 164.029C110.434 167.011 109.635 170.043 108.954 173.053L117.859 175.076C118.508 172.226 119.248 169.417 120.074 166.641Z" fill="white"/>
<path d="M217.203 75.495L215.166 66.5946C212.152 67.2842 209.115 68.0879 206.147 68.983L208.786 77.7236C211.554 76.8924 214.385 76.1435 217.203 75.495Z" fill="white"/>
<path d="M234.41 72.7277L233.56 63.6309C230.5 63.914 227.386 64.3113 224.308 64.8137L225.765 73.8328C228.619 73.3716 231.501 72.9925 234.41 72.7277Z" fill="white"/>
<path d="M114.567 204.567C114.567 203.371 114.581 202.188 114.613 201.005L105.484 200.754C105.447 202.014 105.434 203.293 105.434 204.572C105.434 206.412 105.47 208.248 105.539 210.074L114.667 209.727C114.599 208.015 114.567 206.289 114.567 204.567Z" fill="white"/>
<path d="M116.211 183.638L107.187 182.213C106.703 185.273 106.315 188.383 106.032 191.456L115.124 192.296C115.394 189.378 115.759 186.492 116.211 183.638Z" fill="white"/>
<path d="M246.607 72.134C248.343 72.1249 250.114 72.1614 251.854 72.2208L252.169 63.0966C250.457 63.0327 248.731 63.0007 247.014 63.0007C245.616 62.9961 244.233 63.0144 242.849 63.0555L243.127 72.1888C244.278 72.1523 245.434 72.134 246.607 72.134Z" fill="white"/>
<path d="M115.284 218.431L106.201 219.377C106.525 222.491 106.95 225.564 107.47 228.61L116.476 227.067C115.982 224.222 115.585 221.34 115.284 218.431Z" fill="white"/>
</svg>
