<svg width="500" height="500" viewBox="0 0 500 500" fill="none" xmlns="http://www.w3.org/2000/svg">
<rect width="500" height="500" rx="20" fill="#26D0CE"/>
<path d="M132.914 421V382H143.234V421H132.914ZM151.058 421V391H159.458L160.178 394.6H160.418C161.618 393.44 162.978 392.44 164.498 391.6C166.058 390.72 167.858 390.28 169.898 390.28C173.178 390.28 175.558 391.4 177.038 393.64C178.518 395.84 179.258 398.8 179.258 402.52V421H168.938V403.84C168.938 401.92 168.698 400.64 168.218 400C167.738 399.36 166.978 399.04 165.938 399.04C164.978 399.04 164.178 399.24 163.538 399.64C162.898 400.04 162.178 400.6 161.378 401.32V421H151.058ZM199.54 421.72C197.42 421.72 195.44 421.38 193.6 420.7C191.76 419.98 190.16 418.96 188.8 417.64C187.44 416.28 186.36 414.62 185.56 412.66C184.8 410.7 184.42 408.48 184.42 406C184.42 403.52 184.86 401.3 185.74 399.34C186.62 397.38 187.8 395.74 189.28 394.42C190.76 393.06 192.46 392.04 194.38 391.36C196.34 390.64 198.38 390.28 200.5 390.28C202.3 390.28 203.92 390.56 205.36 391.12C206.8 391.68 208.1 392.44 209.26 393.4L204.46 400C203.78 399.44 203.18 399.06 202.66 398.86C202.18 398.66 201.66 398.56 201.1 398.56C199.18 398.56 197.68 399.24 196.6 400.6C195.52 401.92 194.98 403.72 194.98 406C194.98 408.28 195.52 410.1 196.6 411.46C197.72 412.78 199.1 413.44 200.74 413.44C201.58 413.44 202.4 413.26 203.2 412.9C204.04 412.54 204.82 412.08 205.54 411.52L209.5 418.24C207.98 419.56 206.32 420.48 204.52 421C202.76 421.48 201.1 421.72 199.54 421.72ZM223.521 421.72C221.761 421.72 220.281 421.46 219.081 420.94C217.921 420.38 216.981 419.6 216.261 418.6C215.541 417.6 215.021 416.42 214.701 415.06C214.421 413.66 214.281 412.12 214.281 410.44V379.24H224.601V410.8C224.601 411.84 224.781 412.54 225.141 412.9C225.541 413.26 225.921 413.44 226.281 413.44C226.481 413.44 226.641 413.44 226.761 413.44C226.921 413.44 227.121 413.4 227.361 413.32L228.561 420.88C228.001 421.12 227.301 421.32 226.461 421.48C225.661 421.64 224.681 421.72 223.521 421.72ZM241.272 421.72C239.632 421.72 238.212 421.44 237.012 420.88C235.852 420.28 234.892 419.46 234.132 418.42C233.372 417.34 232.812 416.06 232.452 414.58C232.092 413.06 231.912 411.36 231.912 409.48V391H242.232V408.16C242.232 410.08 242.472 411.36 242.952 412C243.432 412.64 244.192 412.96 245.232 412.96C246.192 412.96 246.972 412.76 247.572 412.36C248.212 411.96 248.872 411.28 249.552 410.32V391H259.872V421H251.472L250.752 417.04H250.512C249.312 418.48 247.972 419.62 246.492 420.46C245.052 421.3 243.312 421.72 241.272 421.72ZM276.079 421.72C274.159 421.72 272.119 421.34 269.959 420.58C267.839 419.82 265.999 418.8 264.439 417.52L268.999 411.16C271.719 413.16 274.159 414.16 276.319 414.16C277.399 414.16 278.159 414.02 278.599 413.74C279.079 413.42 279.319 412.96 279.319 412.36C279.319 411.96 279.159 411.62 278.839 411.34C278.519 411.02 278.079 410.74 277.519 410.5C276.999 410.22 276.399 409.96 275.719 409.72C275.039 409.48 274.319 409.2 273.559 408.88C272.679 408.52 271.779 408.1 270.859 407.62C269.979 407.1 269.179 406.48 268.459 405.76C267.739 405.04 267.139 404.22 266.659 403.3C266.219 402.34 265.999 401.24 265.999 400C265.999 398.52 266.279 397.18 266.839 395.98C267.439 394.78 268.259 393.76 269.299 392.92C270.339 392.08 271.579 391.44 273.019 391C274.499 390.52 276.119 390.28 277.879 390.28C280.359 390.28 282.479 390.7 284.239 391.54C286.039 392.34 287.599 393.24 288.919 394.24L284.359 400.36C283.279 399.56 282.219 398.94 281.179 398.5C280.139 398.06 279.159 397.84 278.239 397.84C276.479 397.84 275.599 398.4 275.599 399.52C275.599 399.92 275.739 400.26 276.019 400.54C276.339 400.82 276.759 401.08 277.279 401.32C277.799 401.56 278.399 401.8 279.079 402.04C279.759 402.24 280.479 402.48 281.239 402.76C282.119 403.08 283.019 403.48 283.939 403.96C284.859 404.44 285.679 405.04 286.399 405.76C287.159 406.44 287.759 407.28 288.199 408.28C288.679 409.24 288.919 410.4 288.919 411.76C288.919 413.16 288.639 414.48 288.079 415.72C287.519 416.92 286.699 417.98 285.619 418.9C284.539 419.78 283.199 420.48 281.599 421C279.999 421.48 278.159 421.72 276.079 421.72ZM293.968 421V391H304.288V421H293.968ZM299.128 387.28C297.448 387.28 296.068 386.8 294.988 385.84C293.908 384.88 293.368 383.64 293.368 382.12C293.368 380.6 293.908 379.36 294.988 378.4C296.068 377.44 297.448 376.96 299.128 376.96C300.808 376.96 302.188 377.44 303.268 378.4C304.348 379.36 304.888 380.6 304.888 382.12C304.888 383.64 304.348 384.88 303.268 385.84C302.188 386.8 300.808 387.28 299.128 387.28ZM318.333 421L308.493 391H318.813L322.053 404.08C322.773 407.08 323.493 410.2 324.213 413.44H324.453C325.173 410.2 325.893 407.08 326.613 404.08L329.853 391H339.693L330.213 421H318.333ZM357.224 421.72C355.024 421.72 352.984 421.38 351.104 420.7C349.224 419.98 347.584 418.96 346.184 417.64C344.824 416.28 343.744 414.62 342.944 412.66C342.144 410.7 341.744 408.48 341.744 406C341.744 403.56 342.144 401.38 342.944 399.46C343.784 397.5 344.864 395.84 346.184 394.48C347.544 393.12 349.084 392.08 350.804 391.36C352.524 390.64 354.304 390.28 356.144 390.28C358.344 390.28 360.264 390.66 361.904 391.42C363.544 392.18 364.904 393.22 365.984 394.54C367.064 395.86 367.864 397.4 368.384 399.16C368.944 400.92 369.224 402.8 369.224 404.8C369.224 405.72 369.164 406.58 369.044 407.38C368.964 408.18 368.884 408.76 368.804 409.12H351.704C352.184 410.92 353.044 412.18 354.284 412.9C355.524 413.58 356.984 413.92 358.664 413.92C359.704 413.92 360.704 413.78 361.664 413.5C362.664 413.18 363.704 412.72 364.784 412.12L368.144 418.24C366.504 419.4 364.684 420.28 362.684 420.88C360.724 421.44 358.904 421.72 357.224 421.72ZM351.584 402.4H360.464C360.464 401.24 360.164 400.24 359.564 399.4C359.004 398.52 357.944 398.08 356.384 398.08C355.224 398.08 354.204 398.42 353.324 399.1C352.484 399.78 351.904 400.88 351.584 402.4Z" fill="white"/>
<g clip-path="url(#clip0)">
<path d="M387.419 110.445L346.206 69.2271C345.193 68.2146 343.819 67.6452 342.387 67.6452C340.955 67.6452 339.582 68.214 338.569 69.2271L313.281 94.5148C297.202 93.064 281.706 98.5815 270.415 109.878L254.349 125.943L229.49 105.198C229.415 105.136 229.338 105.075 229.26 105.017C213.315 93.1143 196.478 92.4818 188.834 92.9532L165.437 69.5562C163.328 67.4477 159.909 67.4466 157.8 69.5562L116.582 110.769C115.569 111.782 115 113.155 115 114.587C115 116.02 115.569 117.393 116.582 118.406L141.87 143.694C140.418 159.773 145.937 175.269 157.233 186.565C157.233 186.565 197.269 226.586 197.37 226.674L200.056 256.425C200.065 256.522 200.076 256.618 200.09 256.714C202.948 276.414 214.402 288.762 220.144 293.832V326.922C220.144 329.905 222.562 332.323 225.545 332.323H230.296C233.278 332.323 235.696 329.905 235.696 326.922C235.696 324.159 233.621 321.882 230.945 321.561V310.988H278.432V321.522H278.088C275.105 321.522 272.688 323.94 272.688 326.922C272.688 329.905 275.105 332.323 278.088 332.323H283.832C286.815 332.323 289.232 329.905 289.232 326.922V291.16C301.629 280.818 308.683 265.959 308.683 249.983V227.84C309.036 227.61 351.568 182.371 351.568 182.371C351.707 182.224 351.837 182.069 351.958 181.906C363.864 165.957 364.499 149.125 364.027 141.48L387.419 118.083C389.527 115.973 389.527 112.554 387.419 110.445ZM161.618 81.0112L169.065 88.4585L135.486 122.037L128.037 114.588L161.618 81.0112ZM164.87 178.928C155.353 169.412 150.982 156.119 152.878 142.46C153.111 140.784 152.545 139.095 151.348 137.899L143.123 129.675L176.702 96.0957L182.98 102.374C184.153 103.547 185.799 104.114 187.446 103.916C191.934 103.374 207.713 102.476 222.685 113.587L246.044 133.079C244.519 133.916 243.118 135.032 241.901 136.41C241.18 137.219 238.771 140.151 237.887 144.891C236.274 144.336 234.56 144.045 232.801 144.045C224.332 144.045 217.443 150.82 217.443 159.149V188.543C215.054 188.265 212.405 188.443 210.039 189.051C209.95 189.073 210.127 189.023 210.039 189.051C209.497 189.22 208.822 189.449 208.283 189.66L192.386 173.621C190.286 171.503 186.867 171.487 184.749 173.587C182.631 175.686 182.616 179.105 184.715 181.224L199.363 196.002C194.727 202.96 195.857 209.916 195.857 209.916L164.87 178.928ZM297.883 249.983C297.883 263.443 291.574 275.932 280.575 284.247C279.225 285.268 278.432 286.862 278.432 288.554V300.187H230.944V291.309C230.944 289.649 230.182 288.082 228.876 287.059C225.319 284.272 213.528 273.759 210.799 255.305L206.557 208.317C206.551 208.251 206.544 208.184 206.536 208.118C205.997 203.906 208.167 200.988 212.984 199.443C214.748 199.018 216.375 199.212 217.444 199.514V238.206C217.444 241.188 219.862 243.606 222.845 243.606C225.827 243.606 228.245 241.188 228.245 238.206V159.149C228.245 153.598 237.355 153.528 237.355 159.149V216.378C237.355 219.375 239.897 221.845 242.887 221.772C245.878 221.845 248.42 219.376 248.42 216.378V147.96C248.42 145.347 250.122 141.961 253.159 142.111C255.999 142.25 257.53 145.457 257.53 147.96V216.378C257.53 219.375 260.072 221.845 263.062 221.772C266.053 221.845 268.595 219.376 268.595 216.378V159.149C268.595 153.598 277.705 153.528 277.705 159.149V216.378C277.705 221.845 285.256 223.757 287.858 218.942C288.433 218.083 288.77 217.052 288.77 215.941V168.75C288.77 163.276 297.885 163.209 297.885 168.75V249.983H297.883ZM353.064 140.091C353.605 144.566 354.498 160.267 343.48 175.207L308.683 212.287V195.176C308.982 194.98 326.582 177.61 326.582 177.61C328.701 175.511 328.718 172.092 326.62 169.973C324.522 167.854 321.103 167.836 318.983 169.935L308.683 180.132V168.75C308.683 164.705 307.064 160.909 304.115 158.048C301.217 155.255 297.386 153.716 293.325 153.716C291.391 153.716 289.541 154.072 287.835 154.713C287.104 152.359 285.789 150.207 283.964 148.432C281.075 145.603 277.234 144.045 273.15 144.045C271.367 144.045 269.655 144.349 268.062 144.901C267.982 144.437 267.89 143.977 267.775 143.527C266.774 139.566 264.477 136.269 261.468 134.098L278.052 117.514C287.565 107.998 300.855 103.627 314.514 105.524C316.189 105.758 317.878 105.19 319.075 103.994L327.301 95.7671L360.882 129.348L354.606 135.626C353.434 136.799 352.865 138.445 353.064 140.091ZM368.519 121.71L334.939 88.1304L342.387 80.6826L375.964 114.264L368.519 121.71Z" fill="white"/>
<path d="M254.072 332.355C257.027 332.355 259.423 329.959 259.423 327.003C259.423 324.048 257.027 321.652 254.072 321.652C251.116 321.652 248.72 324.048 248.72 327.003C248.72 329.959 251.116 332.355 254.072 332.355Z" fill="white"/>
</g>
<defs>
<clipPath id="clip0">
<rect width="274" height="274" fill="white" transform="translate(115 63)"/>
</clipPath>
</defs>
</svg>
