<svg width="500" height="500" viewBox="0 0 500 500" fill="none" xmlns="http://www.w3.org/2000/svg">
<rect width="500" height="500" rx="20" fill="#1A2980"/>
<path d="M348.258 183.842C353.39 177.515 356.472 169.462 356.472 160.7C356.472 140.402 339.954 123.889 319.651 123.889C299.349 123.889 282.831 140.402 282.831 160.7C282.831 169.467 285.918 177.524 291.055 183.854C286.191 185.404 281.574 187.675 277.366 190.589C270.724 180.921 259.592 174.566 247 174.566C234.408 174.566 223.276 180.921 216.634 190.589C212.426 187.675 207.809 185.404 202.945 183.854C208.082 177.524 211.169 169.467 211.169 160.7C211.169 140.402 194.651 123.889 174.349 123.889C154.045 123.889 137.528 140.402 137.528 160.7C137.528 169.462 140.61 177.514 145.742 183.842C125.037 190.444 110 209.856 110 232.715V278.283C110 282.724 113.601 286.324 118.043 286.324H182.653V328.959C182.653 333.4 186.254 337 190.696 337H303.304C307.746 337 311.347 333.4 311.347 328.959V286.324H375.957C380.399 286.324 384 282.724 384 278.283V232.715C384 209.856 368.963 190.444 348.258 183.842ZM319.652 139.971C331.085 139.971 340.386 149.27 340.386 160.7C340.386 172.123 331.096 181.417 319.673 181.428H319.632C308.208 181.417 298.919 172.123 298.919 160.7C298.918 149.27 308.219 139.971 319.652 139.971ZM247 190.649C258.512 190.649 267.89 200.089 267.727 211.683C267.559 223.014 258.291 232.106 247 232.106C235.53 232.106 226.266 222.752 226.266 211.378C226.266 200.1 235.429 190.649 247 190.649ZM174.349 139.971C185.781 139.971 195.082 149.27 195.082 160.7C195.082 172.123 185.792 181.417 174.369 181.428H174.328C162.904 181.417 153.615 172.123 153.615 160.7C153.614 149.27 162.916 139.971 174.349 139.971ZM126.087 232.715C126.087 213.303 141.883 197.511 161.301 197.511H187.399C195.926 197.511 204.166 200.635 210.543 206.19C209.103 216.346 211.997 226.641 218.37 234.52C201.702 239.831 188.816 253.403 184.361 270.241H160.4V240.147C160.4 235.706 156.798 232.106 152.356 232.106C147.914 232.106 144.313 235.706 144.313 240.147V270.241H126.087V232.715ZM295.26 320.917H279.173V297.151C279.173 292.71 275.572 289.11 271.13 289.11C266.688 289.11 263.087 292.71 263.087 297.151V320.917H230.913V297.151C230.913 292.71 227.312 289.11 222.87 289.11C218.428 289.11 214.827 292.71 214.827 297.151V320.917H198.74V283.391C198.74 264.057 214.472 248.188 233.952 248.188H260.048C279.502 248.188 295.26 264.029 295.26 283.391V320.917ZM367.913 270.241H349.687V240.147C349.687 235.706 346.086 232.106 341.644 232.106C337.202 232.106 333.6 235.706 333.6 240.147V270.241H309.639C305.214 253.514 292.407 239.866 275.63 234.52C281.78 226.916 284.945 216.692 283.457 206.19C289.835 200.635 298.074 197.511 306.601 197.511H332.699C352.117 197.511 367.913 213.303 367.913 232.715V270.241Z" fill="white"/>
<path d="M203.192 103.917C205.018 107.988 209.754 109.79 213.772 107.938C217.79 106.088 219.567 101.287 217.74 97.2145L207.086 73.4581C205.259 69.386 200.522 67.5848 196.506 69.4368C192.488 71.2876 190.711 76.0886 192.538 80.1606L203.192 103.917Z" fill="white"/>
<path d="M280.228 107.939C284.25 109.791 288.984 107.985 290.808 103.917L301.462 80.1606C303.289 76.0884 301.512 71.2869 297.495 69.4365C293.476 67.5851 288.74 69.3858 286.914 73.4579L276.26 97.2147C274.434 101.287 276.21 106.088 280.228 107.939Z" fill="white"/>
<path d="M247 102.958C251.203 102.958 254.611 99.3236 254.611 94.8403V71.118C254.611 66.6347 251.203 63 247 63C242.796 63 239.389 66.6347 239.389 71.118V94.8403C239.389 99.3236 242.796 102.958 247 102.958Z" fill="white"/>
<path d="M89.987 421.72C84.507 421.72 80.427 420.14 77.747 416.98C75.107 413.78 73.787 408.84 73.787 402.16V382H84.107V403.36C84.107 406.84 84.567 409.3 85.487 410.74C86.447 412.14 87.947 412.84 89.987 412.84C92.027 412.84 93.527 412.14 94.487 410.74C95.487 409.3 95.987 406.84 95.987 403.36V382H105.947V402.16C105.947 408.84 104.647 413.78 102.047 416.98C99.447 420.14 95.427 421.72 89.987 421.72ZM122.154 421.72C120.234 421.72 118.194 421.34 116.034 420.58C113.914 419.82 112.074 418.8 110.514 417.52L115.074 411.16C117.794 413.16 120.234 414.16 122.394 414.16C123.474 414.16 124.234 414.02 124.674 413.74C125.154 413.42 125.394 412.96 125.394 412.36C125.394 411.96 125.234 411.62 124.914 411.34C124.594 411.02 124.154 410.74 123.594 410.5C123.074 410.22 122.474 409.96 121.794 409.72C121.114 409.48 120.394 409.2 119.634 408.88C118.754 408.52 117.854 408.1 116.934 407.62C116.054 407.1 115.254 406.48 114.534 405.76C113.814 405.04 113.214 404.22 112.734 403.3C112.294 402.34 112.074 401.24 112.074 400C112.074 398.52 112.354 397.18 112.914 395.98C113.514 394.78 114.334 393.76 115.374 392.92C116.414 392.08 117.654 391.44 119.094 391C120.574 390.52 122.194 390.28 123.954 390.28C126.434 390.28 128.554 390.7 130.314 391.54C132.114 392.34 133.674 393.24 134.994 394.24L130.434 400.36C129.354 399.56 128.294 398.94 127.254 398.5C126.214 398.06 125.234 397.84 124.314 397.84C122.554 397.84 121.674 398.4 121.674 399.52C121.674 399.92 121.814 400.26 122.094 400.54C122.414 400.82 122.834 401.08 123.354 401.32C123.874 401.56 124.474 401.8 125.154 402.04C125.834 402.24 126.554 402.48 127.314 402.76C128.194 403.08 129.094 403.48 130.014 403.96C130.934 404.44 131.754 405.04 132.474 405.76C133.234 406.44 133.834 407.28 134.274 408.28C134.754 409.24 134.994 410.4 134.994 411.76C134.994 413.16 134.714 414.48 134.154 415.72C133.594 416.92 132.774 417.98 131.694 418.9C130.614 419.78 129.274 420.48 127.674 421C126.074 421.48 124.234 421.72 122.154 421.72ZM153.963 421.72C151.763 421.72 149.723 421.38 147.843 420.7C145.963 419.98 144.323 418.96 142.923 417.64C141.563 416.28 140.483 414.62 139.683 412.66C138.883 410.7 138.483 408.48 138.483 406C138.483 403.56 138.883 401.38 139.683 399.46C140.523 397.5 141.603 395.84 142.923 394.48C144.283 393.12 145.823 392.08 147.543 391.36C149.263 390.64 151.043 390.28 152.883 390.28C155.083 390.28 157.003 390.66 158.643 391.42C160.283 392.18 161.643 393.22 162.723 394.54C163.803 395.86 164.603 397.4 165.123 399.16C165.683 400.92 165.963 402.8 165.963 404.8C165.963 405.72 165.903 406.58 165.783 407.38C165.703 408.18 165.623 408.76 165.543 409.12H148.443C148.923 410.92 149.783 412.18 151.023 412.9C152.263 413.58 153.723 413.92 155.403 413.92C156.443 413.92 157.443 413.78 158.403 413.5C159.403 413.18 160.443 412.72 161.523 412.12L164.883 418.24C163.243 419.4 161.423 420.28 159.423 420.88C157.463 421.44 155.643 421.72 153.963 421.72ZM148.323 402.4H157.203C157.203 401.24 156.903 400.24 156.303 399.4C155.743 398.52 154.683 398.08 153.123 398.08C151.963 398.08 150.943 398.42 150.063 399.1C149.223 399.78 148.643 400.88 148.323 402.4ZM171.625 421V391H180.025L180.745 396.16H180.985C182.105 394.12 183.425 392.64 184.945 391.72C186.505 390.76 188.025 390.28 189.505 390.28C190.425 390.28 191.165 390.34 191.725 390.46C192.285 390.54 192.785 390.68 193.225 390.88L191.545 399.76C190.985 399.64 190.445 399.54 189.925 399.46C189.445 399.34 188.865 399.28 188.185 399.28C187.105 399.28 185.965 399.66 184.765 400.42C183.605 401.14 182.665 402.44 181.945 404.32V421H171.625ZM209.554 421V382H234.994V390.64H219.874V398.08H232.834V406.72H219.874V421H209.554ZM239.71 421V391H248.11L248.83 396.16H249.07C250.19 394.12 251.51 392.64 253.03 391.72C254.59 390.76 256.11 390.28 257.59 390.28C258.51 390.28 259.25 390.34 259.81 390.46C260.37 390.54 260.87 390.68 261.31 390.88L259.63 399.76C259.07 399.64 258.53 399.54 258.01 399.46C257.53 399.34 256.95 399.28 256.27 399.28C255.19 399.28 254.05 399.66 252.85 400.42C251.69 401.14 250.75 402.44 250.03 404.32V421H239.71ZM264.789 421V391H275.109V421H264.789ZM269.949 387.28C268.269 387.28 266.889 386.8 265.809 385.84C264.729 384.88 264.189 383.64 264.189 382.12C264.189 380.6 264.729 379.36 265.809 378.4C266.889 377.44 268.269 376.96 269.949 376.96C271.629 376.96 273.009 377.44 274.089 378.4C275.169 379.36 275.709 380.6 275.709 382.12C275.709 383.64 275.169 384.88 274.089 385.84C273.009 386.8 271.629 387.28 269.949 387.28ZM295.994 421.72C293.794 421.72 291.754 421.38 289.874 420.7C287.994 419.98 286.354 418.96 284.954 417.64C283.594 416.28 282.514 414.62 281.714 412.66C280.914 410.7 280.514 408.48 280.514 406C280.514 403.56 280.914 401.38 281.714 399.46C282.554 397.5 283.634 395.84 284.954 394.48C286.314 393.12 287.854 392.08 289.574 391.36C291.294 390.64 293.074 390.28 294.914 390.28C297.114 390.28 299.034 390.66 300.674 391.42C302.314 392.18 303.674 393.22 304.754 394.54C305.834 395.86 306.634 397.4 307.154 399.16C307.714 400.92 307.994 402.8 307.994 404.8C307.994 405.72 307.934 406.58 307.814 407.38C307.734 408.18 307.654 408.76 307.574 409.12H290.474C290.954 410.92 291.814 412.18 293.054 412.9C294.294 413.58 295.754 413.92 297.434 413.92C298.474 413.92 299.474 413.78 300.434 413.5C301.434 413.18 302.474 412.72 303.554 412.12L306.914 418.24C305.274 419.4 303.454 420.28 301.454 420.88C299.494 421.44 297.674 421.72 295.994 421.72ZM290.354 402.4H299.234C299.234 401.24 298.934 400.24 298.334 399.4C297.774 398.52 296.714 398.08 295.154 398.08C293.994 398.08 292.974 398.42 292.094 399.1C291.254 399.78 290.674 400.88 290.354 402.4ZM313.656 421V391H322.056L322.776 394.6H323.016C324.216 393.44 325.576 392.44 327.096 391.6C328.656 390.72 330.456 390.28 332.496 390.28C335.776 390.28 338.156 391.4 339.636 393.64C341.116 395.84 341.856 398.8 341.856 402.52V421H331.536V403.84C331.536 401.92 331.296 400.64 330.816 400C330.336 399.36 329.576 399.04 328.536 399.04C327.576 399.04 326.776 399.24 326.136 399.64C325.496 400.04 324.776 400.6 323.976 401.32V421H313.656ZM359.498 421.72C357.618 421.72 355.918 421.36 354.398 420.64C352.918 419.92 351.638 418.88 350.558 417.52C349.518 416.16 348.698 414.52 348.098 412.6C347.538 410.64 347.258 408.44 347.258 406C347.258 403.56 347.598 401.36 348.278 399.4C348.998 397.44 349.918 395.8 351.038 394.48C352.198 393.12 353.518 392.08 354.998 391.36C356.478 390.64 357.978 390.28 359.498 390.28C361.138 390.28 362.478 390.56 363.518 391.12C364.558 391.64 365.538 392.36 366.458 393.28L366.098 388.96V379.24H376.418V421H368.018L367.298 418.24H367.058C366.018 419.28 364.818 420.12 363.458 420.76C362.138 421.4 360.818 421.72 359.498 421.72ZM362.258 413.32C363.058 413.32 363.758 413.18 364.358 412.9C364.958 412.58 365.538 412 366.098 411.16V400.12C365.498 399.56 364.838 399.18 364.118 398.98C363.398 398.78 362.698 398.68 362.018 398.68C360.938 398.68 359.958 399.22 359.078 400.3C358.238 401.38 357.818 403.24 357.818 405.88C357.818 408.6 358.198 410.52 358.958 411.64C359.758 412.76 360.858 413.32 362.258 413.32ZM392.622 421.72C390.862 421.72 389.382 421.46 388.182 420.94C387.022 420.38 386.082 419.6 385.362 418.6C384.642 417.6 384.122 416.42 383.802 415.06C383.522 413.66 383.382 412.12 383.382 410.44V379.24H393.702V410.8C393.702 411.84 393.882 412.54 394.242 412.9C394.642 413.26 395.022 413.44 395.382 413.44C395.582 413.44 395.742 413.44 395.862 413.44C396.022 413.44 396.222 413.4 396.462 413.32L397.662 420.88C397.102 421.12 396.402 421.32 395.562 421.48C394.762 421.64 393.782 421.72 392.622 421.72ZM405.693 432.28C404.653 432.28 403.793 432.22 403.113 432.1C402.473 432.02 401.813 431.88 401.133 431.68L402.933 423.88C403.213 423.96 403.513 424.04 403.833 424.12C404.193 424.2 404.533 424.24 404.853 424.24C406.253 424.24 407.293 423.96 407.973 423.4C408.693 422.88 409.213 422.16 409.533 421.24L409.893 419.92L398.493 391H408.813L412.413 402.52C412.853 403.92 413.233 405.32 413.553 406.72C413.873 408.08 414.213 409.52 414.573 411.04H414.813C415.133 409.6 415.433 408.18 415.713 406.78C416.033 405.38 416.373 403.96 416.733 402.52L419.733 391H429.573L419.493 420.52C418.693 422.56 417.873 424.32 417.033 425.8C416.233 427.28 415.293 428.5 414.213 429.46C413.133 430.42 411.893 431.12 410.493 431.56C409.133 432.04 407.533 432.28 405.693 432.28Z" fill="white"/>
</svg>
