<svg width="947" height="87" viewBox="0 0 947 87" fill="none" xmlns="http://www.w3.org/2000/svg">
<path d="M84.5781 36.1328C84.5781 39.6094 84.1484 42.7148 83.2891 45.4492C82.4297 48.1836 81.2578 50.6055 79.7734 52.7148C78.3281 54.7852 76.6484 56.5625 74.7344 58.0469C72.8203 59.5312 70.8086 60.7422 68.6992 61.6797C66.6289 62.6172 64.5195 63.3008 62.3711 63.7305C60.2617 64.1602 58.2695 64.375 56.3945 64.375H21.9414V49.1406H56.3945C58.3477 48.9844 60.1055 48.5938 61.668 47.9688C63.2695 47.3047 64.6367 46.4258 65.7695 45.332C66.9023 44.2383 67.7812 42.9297 68.4062 41.4062C69.0312 39.8438 69.3438 38.0859 69.3438 36.1328V29.2188C69.1484 27.3047 68.7383 25.5469 68.1133 23.9453C67.4883 22.3438 66.6289 20.9766 65.5352 19.8438C64.4805 18.7109 63.1914 17.832 61.668 17.207C60.1445 16.543 58.3867 16.2109 56.3945 16.2109H22.0586C20.0273 16.2109 18.4844 16.7383 17.4297 17.793C16.375 18.8477 15.8477 20.3711 15.8477 22.3633V85H0.613281V22.3633C0.613281 18.457 1.31641 15.1367 2.72266 12.4023C4.16797 9.66797 5.94531 7.46094 8.05469 5.78125C10.2031 4.10156 12.5273 2.89063 15.0273 2.14844C17.5273 1.36719 19.832 0.976562 21.9414 0.976562H56.3945C59.832 0.976562 62.918 1.42578 65.6523 2.32422C68.3867 3.18359 70.7891 4.35547 72.8594 5.83984C74.9688 7.28516 76.7461 8.96484 78.1914 10.8789C79.6758 12.793 80.8867 14.8047 81.8242 16.9141C82.8008 18.9844 83.5039 21.0937 83.9336 23.2422C84.3633 25.3516 84.5781 27.3438 84.5781 29.2188V36.1328ZM166.727 50.6641H118.621V35.3125H166.727V50.6641ZM173.582 85H118.621C116.512 85 114.207 84.6289 111.707 83.8867C109.207 83.1445 106.883 81.9336 104.734 80.2539C102.625 78.5352 100.848 76.3281 99.4023 73.6328C97.9961 70.8984 97.293 67.5586 97.293 63.6133V8.65234C97.293 7.59766 97.4883 6.60156 97.8789 5.66406C98.2695 4.72656 98.7969 3.90625 99.4609 3.20312C100.164 2.5 100.984 1.95313 101.922 1.5625C102.859 1.17187 103.875 0.976562 104.969 0.976562H173.582V16.2109H112.527V63.6133C112.527 65.6055 113.055 67.1289 114.109 68.1836C115.164 69.2383 116.707 69.7656 118.738 69.7656H173.582V85ZM272.312 29.2188C272.312 32.6953 271.883 35.8008 271.023 38.5352C270.164 41.2695 268.992 43.6914 267.508 45.8008C266.062 47.8711 264.383 49.6484 262.469 51.1328C260.555 52.6172 258.543 53.8477 256.434 54.8242C254.363 55.7617 252.254 56.4453 250.105 56.875C247.996 57.3047 246.004 57.5195 244.129 57.5195L275.945 85H252.391L220.633 57.5195H209.676V42.2852H244.129C246.043 42.1289 247.781 41.7383 249.344 41.1133C250.945 40.4492 252.312 39.5703 253.445 38.4766C254.617 37.3828 255.516 36.0742 256.141 34.5508C256.766 32.9883 257.078 31.2109 257.078 29.2188V19.6094C257.078 18.75 256.961 18.1055 256.727 17.6758C256.531 17.207 256.258 16.875 255.906 16.6797C255.594 16.4453 255.242 16.3086 254.852 16.2695C254.5 16.2305 254.168 16.2109 253.855 16.2109H203.582V85H188.348V8.65234C188.348 7.59766 188.543 6.60156 188.934 5.66406C189.324 4.72656 189.852 3.90625 190.516 3.20312C191.219 2.5 192.039 1.95313 192.977 1.5625C193.914 1.17187 194.93 0.976562 196.023 0.976562H253.855C257.254 0.976562 260.125 1.60156 262.469 2.85156C264.812 4.0625 266.707 5.60547 268.152 7.48047C269.637 9.31641 270.691 11.3086 271.316 13.457C271.98 15.6055 272.312 17.6172 272.312 19.4922V29.2188ZM368.348 60.2734C368.348 63.2812 367.957 65.9961 367.176 68.418C366.434 70.8008 365.438 72.9102 364.188 74.7461C362.938 76.582 361.473 78.1445 359.793 79.4336C358.113 80.7227 356.375 81.7773 354.578 82.5977C352.781 83.418 350.945 84.0234 349.07 84.4141C347.234 84.8047 345.496 85 343.855 85H285.086V69.7656H343.855C346.785 69.7656 349.051 68.9062 350.652 67.1875C352.293 65.4688 353.113 63.1641 353.113 60.2734C353.113 58.8672 352.898 57.5781 352.469 56.4062C352.039 55.2344 351.414 54.2188 350.594 53.3594C349.812 52.5 348.836 51.8359 347.664 51.3672C346.531 50.8984 345.262 50.6641 343.855 50.6641H308.816C306.355 50.6641 303.699 50.2344 300.848 49.375C297.996 48.4766 295.34 47.0508 292.879 45.0977C290.457 43.1445 288.426 40.5859 286.785 37.4219C285.184 34.2578 284.383 30.3906 284.383 25.8203C284.383 21.25 285.184 17.4023 286.785 14.2773C288.426 11.1133 290.457 8.55469 292.879 6.60156C295.34 4.60938 297.996 3.18359 300.848 2.32422C303.699 1.42578 306.355 0.976562 308.816 0.976562H360.672V16.2109H308.816C305.926 16.2109 303.66 17.0898 302.02 18.8477C300.418 20.6055 299.617 22.9297 299.617 25.8203C299.617 28.75 300.418 31.0742 302.02 32.793C303.66 34.4727 305.926 35.3125 308.816 35.3125H343.855H343.973C345.613 35.3516 347.352 35.5859 349.188 36.0156C351.023 36.4062 352.84 37.0312 354.637 37.8906C356.473 38.75 358.211 39.8438 359.852 41.1719C361.492 42.4609 362.938 44.0234 364.188 45.8594C365.477 47.6953 366.492 49.8047 367.234 52.1875C367.977 54.5703 368.348 57.2656 368.348 60.2734ZM464.734 36.1328C464.734 39.6094 464.305 42.7148 463.445 45.4492C462.586 48.1836 461.414 50.6055 459.93 52.7148C458.484 54.7852 456.805 56.5625 454.891 58.0469C452.977 59.5312 450.965 60.7422 448.855 61.6797C446.785 62.6172 444.676 63.3008 442.527 63.7305C440.418 64.1602 438.426 64.375 436.551 64.375H402.098V49.1406H436.551C438.504 48.9844 440.262 48.5938 441.824 47.9688C443.426 47.3047 444.793 46.4258 445.926 45.332C447.059 44.2383 447.938 42.9297 448.562 41.4062C449.188 39.8438 449.5 38.0859 449.5 36.1328V29.2188C449.305 27.3047 448.895 25.5469 448.27 23.9453C447.645 22.3438 446.785 20.9766 445.691 19.8438C444.637 18.7109 443.348 17.832 441.824 17.207C440.301 16.543 438.543 16.2109 436.551 16.2109H402.215C400.184 16.2109 398.641 16.7383 397.586 17.793C396.531 18.8477 396.004 20.3711 396.004 22.3633V85H380.77V22.3633C380.77 18.457 381.473 15.1367 382.879 12.4023C384.324 9.66797 386.102 7.46094 388.211 5.78125C390.359 4.10156 392.684 2.89063 395.184 2.14844C397.684 1.36719 399.988 0.976562 402.098 0.976562H436.551C439.988 0.976562 443.074 1.42578 445.809 2.32422C448.543 3.18359 450.945 4.35547 453.016 5.83984C455.125 7.28516 456.902 8.96484 458.348 10.8789C459.832 12.793 461.043 14.8047 461.98 16.9141C462.957 18.9844 463.66 21.0937 464.09 23.2422C464.52 25.3516 464.734 27.3438 464.734 29.2188V36.1328ZM546.883 50.6641H498.777V35.3125H546.883V50.6641ZM553.738 85H498.777C496.668 85 494.363 84.6289 491.863 83.8867C489.363 83.1445 487.039 81.9336 484.891 80.2539C482.781 78.5352 481.004 76.3281 479.559 73.6328C478.152 70.8984 477.449 67.5586 477.449 63.6133V8.65234C477.449 7.59766 477.645 6.60156 478.035 5.66406C478.426 4.72656 478.953 3.90625 479.617 3.20312C480.32 2.5 481.141 1.95313 482.078 1.5625C483.016 1.17187 484.031 0.976562 485.125 0.976562H553.738V16.2109H492.684V63.6133C492.684 65.6055 493.211 67.1289 494.266 68.1836C495.32 69.2383 496.863 69.7656 498.895 69.7656H553.738V85ZM643.152 85H588.191C586.785 85 585.262 84.8438 583.621 84.5312C582.02 84.1797 580.418 83.6523 578.816 82.9492C577.254 82.2461 575.75 81.3477 574.305 80.2539C572.859 79.1211 571.57 77.7734 570.438 76.2109C569.344 74.6094 568.465 72.7734 567.801 70.7031C567.137 68.5938 566.805 66.2305 566.805 63.6133V22.3633C566.805 20.957 566.961 19.4531 567.273 17.8516C567.625 16.2109 568.152 14.6094 568.855 13.0469C569.559 11.4453 570.477 9.92188 571.609 8.47656C572.742 7.03125 574.09 5.76172 575.652 4.66797C577.254 3.53516 579.09 2.63672 581.16 1.97266C583.23 1.30859 585.574 0.976562 588.191 0.976562H643.152V16.2109H588.191C586.199 16.2109 584.676 16.7383 583.621 17.793C582.566 18.8477 582.039 20.4102 582.039 22.4805V63.6133C582.039 65.5664 582.566 67.0898 583.621 68.1836C584.715 69.2383 586.238 69.7656 588.191 69.7656H643.152V85ZM733.504 16.2109H699.93V85H684.695V16.2109H651.062V0.976562H733.504V16.2109ZM760.105 85H744.871V0.976562H760.105V85ZM862 0.976562L822.215 82.0117C821.59 83.2617 820.652 84.2578 819.402 85C818.191 85.7812 816.844 86.1719 815.359 86.1719C813.914 86.1719 812.566 85.7812 811.316 85C810.105 84.2578 809.168 83.2617 808.504 82.0117L768.777 0.976562H785.828L815.359 61.5039L845.008 0.976562H862ZM939.695 50.6641H891.59V35.3125H939.695V50.6641ZM946.551 85H891.59C889.48 85 887.176 84.6289 884.676 83.8867C882.176 83.1445 879.852 81.9336 877.703 80.2539C875.594 78.5352 873.816 76.3281 872.371 73.6328C870.965 70.8984 870.262 67.5586 870.262 63.6133V8.65234C870.262 7.59766 870.457 6.60156 870.848 5.66406C871.238 4.72656 871.766 3.90625 872.43 3.20312C873.133 2.5 873.953 1.95313 874.891 1.5625C875.828 1.17187 876.844 0.976562 877.938 0.976562H946.551V16.2109H885.496V63.6133C885.496 65.6055 886.023 67.1289 887.078 68.1836C888.133 69.2383 889.676 69.7656 891.707 69.7656H946.551V85Z" fill="white"/>
</svg>
