<svg width="89" height="89" viewBox="0 0 89 89" fill="none" xmlns="http://www.w3.org/2000/svg">
<path d="M6.14014 22.42L22.7001 5.85999C19.7601 7.53999 17.0301 9.54999 14.5601 11.83L12.1101 14.28C9.83014 16.76 7.82014 19.48 6.14014 22.42Z" fill="#03738C"/>
<path d="M1.19995 35.58L35.86 0.920044C34.9 1.11004 33.96 1.34003 33.02 1.59003L1.86995 32.74C1.60995 33.68 1.38995 34.63 1.19995 35.58Z" fill="#03738C"/>
<path d="M0.320068 44.39C0.320068 44.48 0.320068 44.58 0.320068 44.67L44.9401 0.0499878C44.8501 0.0499878 44.7501 0.0499878 44.6601 0.0499878C44.0201 0.0499878 43.3701 0.0699963 42.7401 0.0899963L0.360062 42.47C0.340062 43.11 0.320068 43.75 0.320068 44.39Z" fill="#03738C"/>
<path d="M1.00996 52.21L52.48 0.73999C51.86 0.62999 51.23 0.530012 50.61 0.450012L0.719971 50.34C0.799971 50.96 0.899964 51.59 1.00996 52.21Z" fill="#03738C"/>
<path d="M2.69017 58.74L59.0102 2.42004C58.4702 2.23004 57.9202 2.06002 57.3702 1.90002L2.17017 57.1C2.33017 57.65 2.51017 58.2 2.69017 58.74Z" fill="#03738C"/>
<path d="M5.14018 64.51L64.7902 4.86002C64.3102 4.61002 63.8202 4.38002 63.3302 4.15002L4.43018 63.05C4.66018 63.55 4.89018 64.03 5.14018 64.51Z" fill="#03738C"/>
<path d="M8.22009 69.65L69.9301 7.94C69.5001 7.64 69.0701 7.35001 68.6301 7.07001L7.3501 68.35C7.6301 68.8 7.92009 69.23 8.22009 69.65Z" fill="#03738C"/>
<path d="M11.8601 74.2299L74.5001 11.59C74.1201 11.25 73.7401 10.91 73.3501 10.58L10.8501 73.08C11.1801 73.47 11.5101 73.8499 11.8601 74.2299Z" fill="#03738C"/>
<path d="M16.0401 78.26L78.5301 15.77C78.2001 15.38 77.8601 14.99 77.5201 14.61L14.8801 77.25C15.2701 77.6 15.6501 77.93 16.0401 78.26Z" fill="#03738C"/>
<path d="M20.77 81.76L82.03 20.5C81.75 20.06 81.46 19.63 81.16 19.2L19.47 80.89C19.9 81.18 20.33 81.47 20.77 81.76Z" fill="#03738C"/>
<path d="M26.0801 84.6599L84.9301 25.81C84.7001 25.32 84.4701 24.83 84.2201 24.35L24.6101 83.96C25.1001 84.2 25.5901 84.4399 26.0801 84.6599Z" fill="#03738C"/>
<path d="M32.0502 86.91L87.1902 31.77C87.0302 31.22 86.8502 30.67 86.6702 30.13L30.4102 86.39C30.9402 86.58 31.4902 86.75 32.0502 86.91Z" fill="#03738C"/>
<path d="M38.8199 88.35L88.6199 38.55C88.5399 37.92 88.4399 37.29 88.3299 36.67L36.9399 88.06C37.5699 88.18 38.1899 88.27 38.8199 88.35Z" fill="#03738C"/>
<path d="M44.66 88.74C45.35 88.74 46.03 88.72 46.7 88.69L88.95 46.44C88.98 45.76 89 45.08 89 44.4C89 44.34 89 44.29 89 44.23L44.49 88.74C44.55 88.74 44.61 88.74 44.66 88.74Z" fill="#03738C"/>
<path d="M56.4701 87.15L87.4201 56.2C87.6801 55.26 87.9101 54.31 88.1101 53.35L53.6201 87.84C54.5801 87.64 55.5301 87.4 56.4701 87.15Z" fill="#03738C"/>
<path d="M83.0302 66.64L66.9001 82.77C73.5801 78.88 79.1502 73.31 83.0302 66.64Z" fill="#03738C"/>
</svg>
