<svg xmlns="http://www.w3.org/2000/svg" viewBox="0 0 1956.27 193.79"><defs><style>.cls-1,.cls-3{fill:#fff;}.cls-1,.cls-2{opacity:0.5;}</style></defs><g id="Layer_2" data-name="Layer 2"><g id="Calque_1" data-name="Calque 1"><ellipse class="cls-1" cx="1607.42" cy="96.76" rx="86.56" ry="86.14"/><g class="cls-2"><path class="cls-3" d="M1589.48,126.32l91.88,52.79c22.87,13.14,51.45-3.28,51.45-29.56V44c0-26.27-28.58-42.7-51.45-29.56L1589.48,67.2A34.05,34.05,0,0,0,1589.48,126.32Z"/></g><path class="cls-3" d="M1633.69,81.05h-15.82a19.68,19.68,0,0,0-12.22-4.19,20.27,20.27,0,0,0-6.81,1.18l7.77-13.39A32.3,32.3,0,0,1,1633.69,81.05Z"/><path class="cls-3" d="M1605,64.65,1596.73,79A19.94,19.94,0,0,0,1586.07,93l-7.8-13.44A32.11,32.11,0,0,1,1605,64.65Z"/><path class="cls-3" d="M1592,111.11h-15.33a32.09,32.09,0,0,1,.8-30.17l8.32,14.35c0,.46-.06.95-.06,1.39A19.71,19.71,0,0,0,1592,111.11Z"/><path class="cls-3" d="M1611.06,115.76l-7.58,13.06a32.4,32.4,0,0,1-26.09-16.34h16.23a20,20,0,0,0,17.44,3.28Z"/><path class="cls-3" d="M1632.54,114.36a32.17,32.17,0,0,1-27,14.52h-.49l8-13.81a19.86,19.86,0,0,0,12-13.72Z"/><path class="cls-3" d="M1637.81,96.76a31.83,31.83,0,0,1-4.45,16.29l-8-13.75a21,21,0,0,0,.17-2.62,19.63,19.63,0,0,0-6.1-14.27h15A31.7,31.7,0,0,1,1637.81,96.76Z"/><path class="cls-3" d="M188.45,81.63a73.9,73.9,0,0,1-2.79,20.85,64.41,64.41,0,0,1-7.89,16.28,51.15,51.15,0,0,1-11.44,12,67.4,67.4,0,0,1-13.48,8.14,71.39,71.39,0,0,1-14.24,4.58A64.35,64.35,0,0,1,125.13,145H47.81V110.88h77.32a35.85,35.85,0,0,0,12-2.8,28.48,28.48,0,0,0,9.16-5.85,23.74,23.74,0,0,0,5.85-8.9,29.16,29.16,0,0,0,2-11.7V66.12a45.53,45.53,0,0,0-2.8-12A32.42,32.42,0,0,0,145.73,45a26.56,26.56,0,0,0-8.65-6.11,28.72,28.72,0,0,0-12-2.29H48.07c-4.58,0-8.14,1.28-10.43,3.56S34.08,46,34.08,50.35V191H0V50.35C0,41.7,1.53,34.07,4.83,28s7.12-11.19,12-14.75A43.15,43.15,0,0,1,32.3,5.08,50.61,50.61,0,0,1,47.81,2.53h77.32A66.37,66.37,0,0,1,146,5.59a64.06,64.06,0,0,1,16.28,7.88,56.59,56.59,0,0,1,12,11.45,67.61,67.61,0,0,1,8.14,13.47,57.77,57.77,0,0,1,4.58,14.25,64.17,64.17,0,0,1,1.52,13.48Z"/><path class="cls-3" d="M388.1,191.24H264.75a50.58,50.58,0,0,1-15.51-2.54,47.8,47.8,0,0,1-15.52-8.14,46.14,46.14,0,0,1-11.95-14.75c-3.3-6.1-4.83-13.48-4.83-22.38V20.08a19.18,19.18,0,0,1,1.27-6.61,16.17,16.17,0,0,1,3.56-5.59,15.29,15.29,0,0,1,5.34-3.57A19.54,19.54,0,0,1,234,3H387.85V37.12H251V143.43c0,4.58,1.27,7.88,3.56,10.17s5.85,3.56,10.43,3.56H388.1Zm-15.51-77.06H264.75V79.85H372.59Z"/><path class="cls-3" d="M609.36,66.12A73.9,73.9,0,0,1,606.57,87a64.58,64.58,0,0,1-7.89,16.28,57,57,0,0,1-11.44,12,68.15,68.15,0,0,1-13.48,8.14,58.69,58.69,0,0,1-14.24,4.58A65,65,0,0,1,546,129.44L617.5,191H564.6l-71.21-61.55H468.72V95.36H546a34.34,34.34,0,0,0,11.69-2.79,28.26,28.26,0,0,0,9.16-5.85,27.67,27.67,0,0,0,6.1-8.91,29.42,29.42,0,0,0,2-12V44.24a9.51,9.51,0,0,0-.76-4.32,5.57,5.57,0,0,0-1.78-2.29,4.11,4.11,0,0,0-2.29-.76c-.77,0-1.53-.26-2.29-.26H455.24V191H421.16V19.57A19.22,19.22,0,0,1,422.43,13,16.32,16.32,0,0,1,426,7.37a15.08,15.08,0,0,1,5.35-3.56,19.22,19.22,0,0,1,6.86-1.28H567.91c7.63,0,14,1.28,19.33,4.07A36.93,36.93,0,0,1,600,17a40.34,40.34,0,0,1,7.12,13.48A45.25,45.25,0,0,1,609.36,44Z"/><path class="cls-3" d="M812.57,191.24H689.22a49.37,49.37,0,0,1-10.17-1,44.25,44.25,0,0,1-10.68-3.56,47,47,0,0,1-10.18-6.11,42.36,42.36,0,0,1-8.64-9.15,43.67,43.67,0,0,1-6.11-12.47,50.27,50.27,0,0,1-2.29-15.76V50.6a49.41,49.41,0,0,1,1-10.17,43.82,43.82,0,0,1,3.56-10.68,47,47,0,0,1,6.11-10.18A42.36,42.36,0,0,1,661,10.93,45.63,45.63,0,0,1,673.2,4.82,50.38,50.38,0,0,1,689,2.53H812.31V36.61H689.22c-4.58,0-7.88,1.28-10.17,3.56S675.49,46,675.49,50.6v92.32c0,4.33,1.27,7.89,3.56,10.17s5.85,3.57,10.17,3.57H812.57Z"/><path class="cls-3" d="M1015.52,191.24H892.17a50.58,50.58,0,0,1-15.51-2.54,47.8,47.8,0,0,1-15.52-8.14,46.14,46.14,0,0,1-11.95-14.75c-3.3-6.1-4.83-13.48-4.83-22.38V20.08a19.18,19.18,0,0,1,1.27-6.61,16.17,16.17,0,0,1,3.56-5.59,15.29,15.29,0,0,1,5.34-3.57A19.54,19.54,0,0,1,861.4,3h153.87V37.12H878.18V143.43c0,4.58,1.28,7.88,3.56,10.17s5.85,3.56,10.43,3.56h123.1v34.08ZM1000,114.18H892.17V79.85H1000Z"/><path class="cls-3" d="M1236.27,81.63a73.9,73.9,0,0,1-2.79,20.85,64.41,64.41,0,0,1-7.89,16.28,56.54,56.54,0,0,1-11.44,12,67.68,67.68,0,0,1-13.48,8.14,71.39,71.39,0,0,1-14.24,4.58A64.35,64.35,0,0,1,1173,145h-77.32V110.88H1173a35.85,35.85,0,0,0,12-2.8,28.48,28.48,0,0,0,9.16-5.85,23.74,23.74,0,0,0,5.85-8.9,29.16,29.16,0,0,0,2-11.7V66.12a45.53,45.53,0,0,0-2.8-12,32.42,32.42,0,0,0-5.59-9.15,26.56,26.56,0,0,0-8.65-6.11,28.75,28.75,0,0,0-12-2.29h-77.06c-4.58,0-8.14,1.28-10.43,3.56s-3.56,5.85-3.56,10.18V191h-34.08V50.35c0-8.65,1.53-16.28,4.83-22.38s7.12-11.19,11.95-14.75a43.27,43.27,0,0,1,15.52-8.14,50.61,50.61,0,0,1,15.51-2.55H1173a66.37,66.37,0,0,1,20.85,3.06,64.06,64.06,0,0,1,16.28,7.88,56.59,56.59,0,0,1,12,11.45,67.61,67.61,0,0,1,8.14,13.47,58.19,58.19,0,0,1,4.58,14.25,64.17,64.17,0,0,1,1.52,13.48Z"/><path class="cls-3" d="M1435.92,36.87h-75.28V191.24h-34.08V36.87H1251V2.79h184.9Z"/><path class="cls-3" d="M1495.43,191.24h-34.08V2.79h34.08Z"/><path class="cls-3" d="M1955.51,176.75a16.71,16.71,0,0,1-4.84,12.2,15.11,15.11,0,0,1-5.34,3.57,17.19,17.19,0,0,1-13,0,13.83,13.83,0,0,1-5.59-3.82L1801.89,58.23V191h-34.08V17a15.41,15.41,0,0,1,3.06-9.41,18.27,18.27,0,0,1,7.63-6.36,19,19,0,0,1,9.91-1,18,18,0,0,1,8.91,4.83l124.87,130.21V2.53h34.08V176.75Z"/></g></g></svg>