<svg width="770" height="77" viewBox="0 0 770 77" fill="none" xmlns="http://www.w3.org/2000/svg">
<path d="M74.1 32.8C74.1 35.9 73.7 38.6 73 41C72.2 43.4 71.2 45.4999 69.9 47.3999C68.6 49.2999 67.1 50.8 65.4 52.1C63.7 53.4 61.9 54.4999 60.1 55.2999C58.3 56.0999 56.4 56.7 54.5 57.1C52.6 57.5 50.9 57.7 49.2 57.7H18.8V44.2999H49.2C50.9 44.1999 52.5 43.8 53.9 43.2C55.3 42.6 56.5 41.8999 57.5 40.8999C58.5 39.8999 59.3 38.7999 59.8 37.3999C60.4 35.9999 60.6 34.5 60.6 32.8V26.7C60.4 25 60.1 23.5 59.5 22C58.9 20.6 58.2 19.3999 57.3 18.3999C56.4 17.3999 55.2 16.6 53.9 16C52.6 15.4 51 15.1 49.2 15.1H18.9C17.1 15.1 15.7 15.6 14.8 16.5C13.9 17.4 13.4 18.8 13.4 20.5V75.7999H0V20.5C0 17.1 0.6 14.1 1.9 11.7C3.2 9.29995 4.7 7.29995 6.6 5.89995C8.5 4.39995 10.5 3.29995 12.7 2.69995C14.9 1.99995 16.9 1.69995 18.8 1.69995H49.2C52.2 1.69995 55 2.09995 57.4 2.89995C59.8 3.69995 61.9 4.69995 63.8 5.99995C65.6 7.29995 67.2 8.79995 68.5 10.5C69.8 12.2 70.9 14 71.7 15.8C72.5 17.6 73.2 19.4999 73.5 21.3999C73.9 23.2999 74.1 25 74.1 26.7V32.8V32.8Z" fill="black"/>
<path d="M152.6 75.8999H104.1C102.2 75.8999 100.2 75.5999 98 74.8999C95.8 74.1999 93.8 73.1999 91.9 71.6999C90 70.1999 88.5 68.2999 87.2 65.8999C85.9 63.4999 85.3 60.5999 85.3 57.0999V8.59991C85.3 7.69991 85.5 6.79991 85.8 5.99991C86.1 5.19991 86.6 4.39991 87.2 3.79991C87.8 3.19991 88.5 2.6999 89.3 2.3999C90.1 2.0999 91 1.8999 92 1.8999H152.5V15.2999H98.7V57.0999C98.7 58.8999 99.2 60.1999 100.1 61.0999C101 61.9999 102.4 62.4999 104.2 62.4999H152.6V75.8999ZM146.5 45.5999H104.1V32.0999H146.5V45.5999Z" fill="black"/>
<path d="M239.6 26.7C239.6 29.8 239.2 32.4999 238.5 34.8999C237.7 37.2999 236.7 39.4 235.4 41.3C234.1 43.1 232.6 44.7 230.9 46C229.2 47.3 227.4 48.4 225.6 49.2C223.8 50 221.9 50.7 220 51C218.1 51.4 216.4 51.6 214.7 51.6L242.8 75.7999H222L194 51.6H184.3V38.2H214.7C216.4 38.1 217.9 37.7 219.3 37.1C220.7 36.5 221.9 35.8 222.9 34.8C223.9 33.8 224.7 32.7 225.3 31.3C225.9 29.9 226.1 28.4 226.1 26.6V18.1C226.1 17.3 226 16.7999 225.8 16.3999C225.6 15.9999 225.4 15.7 225.1 15.5C224.8 15.3 224.5 15.2 224.2 15.2C223.9 15.2 223.6 15.1 223.3 15.1H179V75.7999H165.6V8.39995C165.6 7.49995 165.8 6.59996 166.1 5.79996C166.4 4.99996 166.9 4.19996 167.5 3.59996C168.1 2.99996 168.8 2.49995 169.6 2.19995C170.4 1.89995 171.3 1.69995 172.3 1.69995H223.3C226.3 1.69995 228.8 2.19996 230.9 3.29996C233 4.39996 234.6 5.69995 235.9 7.39995C237.2 8.99995 238.1 10.8 238.7 12.7C239.3 14.6 239.6 16.4 239.6 18V26.7Z" fill="black"/>
<path d="M319.5 75.8999H271C269.8 75.8999 268.4 75.8 267 75.5C265.6 75.2 264.2 74.8 262.8 74.1C261.4 73.5 260.1 72.7 258.8 71.7C257.5 70.7 256.4 69.5 255.4 68.1C254.4 66.7 253.6 65.1 253 63.2C252.4 61.4 252.1 59.3 252.1 57V20.6C252.1 19.4 252.2 18 252.5 16.6C252.8 15.2 253.2 13.7999 253.9 12.3999C254.5 10.9999 255.3 9.69995 256.3 8.39995C257.3 7.09995 258.5 5.99995 259.9 4.99995C261.3 3.99995 262.9 3.19996 264.7 2.59996C266.5 1.99996 268.6 1.69995 270.9 1.69995H319.4V15.1H271C269.2 15.1 267.9 15.6 267 16.5C266.1 17.4 265.6 18.8 265.6 20.6V56.8999C265.6 58.5999 266.1 59.9999 267 60.8999C267.9 61.7999 269.3 62.2999 271 62.2999H319.5V75.8999Z" fill="black"/>
<path d="M399.3 1.8999H350.8C348.9 1.8999 346.9 2.1999 344.7 2.8999C342.5 3.5999 340.5 4.59988 338.6 6.09988C336.7 7.59988 335.2 9.4999 333.9 11.8999C332.6 14.2999 332 17.1999 332 20.6999V69.1999C332 70.0999 332.2 70.9999 332.5 71.7999C332.8 72.5999 333.3 73.3999 333.9 73.9999C334.5 74.5999 335.2 75.0999 336 75.3999C336.8 75.6999 337.7 75.8999 338.7 75.8999H399.2V62.4999H345.3V20.6999C345.3 18.8999 345.8 17.5999 346.7 16.6999C347.6 15.7999 349 15.2999 350.8 15.2999H399.2V1.8999H399.3ZM393.2 32.1999H350.8V45.6999H393.2V32.1999Z" fill="black"/>
<path d="M486.1 32.8C486.1 35.9 485.7 38.6 485 41C484.2 43.4 483.2 45.4999 481.9 47.3999C480.6 49.1999 479.1 50.8 477.4 52.1C475.7 53.4 473.9 54.4999 472.1 55.2999C470.3 56.0999 468.4 56.7 466.5 57.1C464.6 57.5 462.9 57.7 461.2 57.7H430.8V44.2999H461.2C462.9 44.1999 464.5 43.8 465.9 43.2C467.3 42.6 468.5 41.8999 469.5 40.8999C470.5 39.8999 471.3 38.7999 471.8 37.3999C472.4 35.9999 472.6 34.5 472.6 32.8V26.7C472.4 25 472.1 23.5 471.5 22C470.9 20.6 470.2 19.3999 469.3 18.3999C468.4 17.3999 467.2 16.6 465.9 16C464.6 15.4 463 15.1 461.2 15.1H430.9C429.1 15.1 427.7 15.6 426.8 16.5C425.9 17.4 425.4 18.8 425.4 20.5V75.7999H412V20.5C412 17.1 412.6 14.1 413.9 11.7C415.2 9.29995 416.7 7.29995 418.6 5.89995C420.5 4.39995 422.5 3.29995 424.7 2.69995C426.9 1.99995 428.9 1.69995 430.8 1.69995H461.2C464.2 1.69995 467 2.09995 469.4 2.89995C471.8 3.69995 473.9 4.69995 475.8 5.99995C477.6 7.29995 479.2 8.79995 480.5 10.5C481.8 12.2 482.9 14 483.7 15.8C484.5 17.6 485.2 19.4999 485.5 21.3999C485.9 23.2999 486.1 25 486.1 26.7V32.8V32.8Z" fill="black"/>
<path d="M564.6 15.1999H535V75.8999H521.6V15.1999H491.9V1.79993H564.6V15.1999Z" fill="black"/>
<path d="M588 75.8999H574.6V1.79993H588V75.8999Z" fill="black"/>
<path d="M681.6 45.9999C681.6 50.4999 680.8 54.6999 679.3 58.4999C677.7 62.2999 675.6 65.5999 672.8 68.2999C670 71.0999 666.8 73.1999 663 74.6999C659.2 76.1999 655.1 76.9999 650.7 76.9999H632.5C628.1 76.9999 623.9 76.1999 620.1 74.6999C616.3 73.1999 613 70.9999 610.3 68.2999C607.5 65.4999 605.4 62.2999 603.8 58.4999C602.2 54.6999 601.4 50.5999 601.4 45.9999V31.7999C601.4 27.2999 602.2 23.1999 603.8 19.3999C605.4 15.5999 607.5 12.2999 610.3 9.59991C613.1 6.89991 616.3 4.69991 620.1 3.19991C623.9 1.59991 628 0.899902 632.5 0.899902H650.7C655.1 0.899902 659.3 1.69991 663 3.19991C666.8 4.79991 670 6.89991 672.8 9.59991C675.6 12.2999 677.7 15.5999 679.3 19.3999C680.9 23.1999 681.6 27.3999 681.6 31.7999V45.9999ZM668.1 31.7999C668.1 29.0999 667.7 26.6999 666.8 24.5999C666 22.3999 664.8 20.5999 663.2 19.0999C661.7 17.5999 659.8 16.3999 657.7 15.4999C655.5 14.6999 653.2 14.1999 650.6 14.1999H632.4C629.8 14.1999 627.4 14.5999 625.2 15.4999C623 16.2999 621.2 17.4999 619.6 19.0999C618 20.5999 616.9 22.4999 616 24.5999C615.2 26.7999 614.7 29.1999 614.7 31.7999V45.9999C614.7 48.6999 615.1 51.0999 616 53.1999C616.8 55.3999 618 57.1999 619.6 58.6999C621.2 60.1999 623 61.3999 625.2 62.2999C627.4 63.0999 629.7 63.5999 632.4 63.5999H650.5C653.1 63.5999 655.5 63.1999 657.7 62.2999C659.9 61.4999 661.7 60.2999 663.3 58.6999C664.9 57.0999 666 55.2999 666.9 53.1999C667.7 50.9999 668.2 48.5999 668.2 45.9999V31.7999H668.1Z" fill="black"/>
<path d="M768.9 70.2C768.9 71.2 768.7 72.0999 768.4 72.8999C768 73.6999 767.6 74.3999 767 74.9999C766.4 75.5999 765.7 76.0999 764.9 76.3999C764.1 76.6999 763.2 76.8999 762.3 76.8999C761.5 76.8999 760.6 76.6999 759.8 76.3999C759 76.0999 758.2 75.5999 757.6 74.8999L708.5 23.5999V75.7999H695.1V7.39994C695.1 5.99994 695.5 4.79994 696.3 3.69994C697.1 2.59994 698.1 1.69994 699.3 1.19994C700.6 0.699939 701.9 0.599945 703.2 0.799945C704.5 1.09995 705.7 1.69994 706.7 2.69994L755.8 53.8999V1.69994H769.2V70.2H768.9Z" fill="black"/>
</svg>
